<?xml version="1.0" encoding="utf-8"?>
<!-- Generator: Adobe Illustrator 16.0.0, SVG Export Plug-In . SVG Version: 6.00 Build 0)  -->
<!DOCTYPE svg PUBLIC "-//W3C//DTD SVG 1.1//EN" "http://www.w3.org/Graphics/SVG/1.1/DTD/svg11.dtd">
<svg version="1.1" id="Layer_1" xmlns="http://www.w3.org/2000/svg" xmlns:xlink="http://www.w3.org/1999/xlink" x="0px" y="0px"
	 width="230.4px" height="230.4px" viewBox="0 0 230.4 230.4" enable-background="new 0 0 230.4 230.4" xml:space="preserve">
<path fill="#231F20" d="M60.73,196.915c47.514,56.69,57.457-64.911,59.617-80.767c0.143,0,39.602,18.713,43.317-5.771
	c-0.143,0-0.286,0-0.43,0c-6.91,13.816-41.459,0.444-41.604,0.444c0.069-11.205,10.496-93.908,42.462-82.987
	c2.098,0.716,5.289,3.106,5.574,3.106c-39.308-46.064-53.161,48.91-57.043,76.33c-42.405-20.235-49.912-4.497-49.434,0.992
	c-0.177,2.017,4.743-15.166,48.576,3.89C101.769,241.899,61.016,196.915,60.73,196.915z"/>
</svg>
